<svg width="110" height="31" viewBox="0 0 56 12" fill="none" xmlns="http://www.w3.org/2000/svg">
<path d="M5.70117 6.77344H2.12695L1.32422 9H0.164062L3.42188 0.46875H4.40625L7.66992 9H6.51562L5.70117 6.77344ZM2.4668 5.84766H5.36719L3.91406 1.85742L2.4668 5.84766ZM14.0039 5.90039C14.0039 6.86523 13.7832 7.64258 13.3418 8.23242C12.9004 8.82227 12.3027 9.11719 11.5488 9.11719C10.7793 9.11719 10.1738 8.87305 9.73242 8.38477V11.4375H8.64844V2.66016H9.63867L9.69141 3.36328C10.1328 2.81641 10.7461 2.54297 11.5312 2.54297C12.293 2.54297 12.8945 2.83008 13.3359 3.4043C13.7812 3.97852 14.0039 4.77734 14.0039 5.80078V5.90039ZM12.9199 5.77734C12.9199 5.0625 12.7676 4.49805 12.4629 4.08398C12.1582 3.66992 11.7402 3.46289 11.209 3.46289C10.5527 3.46289 10.0605 3.75391 9.73242 4.33594V7.36523C10.0566 7.94336 10.5527 8.23242 11.2207 8.23242C11.7402 8.23242 12.1523 8.02734 12.457 7.61719C12.7656 7.20312 12.9199 6.58984 12.9199 5.77734ZM17.7246 5.0332L16.6816 6.11719V9H15.5566V0.46875H16.6816V4.6875L20.4727 0.46875H21.832L18.4746 4.23633L22.0957 9H20.748L17.7246 5.0332ZM32.8008 9H31.6699L27.375 2.42578V9H26.2441V0.46875H27.375L31.6816 7.07227V0.46875H32.8008V9ZM37.2598 9.11719C36.4004 9.11719 35.7012 8.83594 35.1621 8.27344C34.623 7.70703 34.3535 6.95117 34.3535 6.00586V5.80664C34.3535 5.17773 34.4727 4.61719 34.7109 4.125C34.9531 3.62891 35.2891 3.24219 35.7188 2.96484C36.1523 2.68359 36.6211 2.54297 37.125 2.54297C37.9492 2.54297 38.5898 2.81445 39.0469 3.35742C39.5039 3.90039 39.7324 4.67773 39.7324 5.68945V6.14062H35.4375C35.4531 6.76562 35.6348 7.27148 35.9824 7.6582C36.334 8.04102 36.7793 8.23242 37.3184 8.23242C37.7012 8.23242 38.0254 8.1543 38.291 7.99805C38.5566 7.8418 38.7891 7.63477 38.9883 7.37695L39.6504 7.89258C39.1191 8.70898 38.3223 9.11719 37.2598 9.11719ZM37.125 3.43359C36.6875 3.43359 36.3203 3.59375 36.0234 3.91406C35.7266 4.23047 35.543 4.67578 35.4727 5.25H38.6484V5.16797C38.6172 4.61719 38.4688 4.19141 38.2031 3.89062C37.9375 3.58594 37.5781 3.43359 37.125 3.43359ZM46.6055 7.50586L47.8242 2.66016H48.9082L47.0625 9H46.1836L44.6426 4.19531L43.1426 9H42.2637L40.4238 2.66016H41.502L42.75 7.40625L44.2266 2.66016H45.0996L46.6055 7.50586ZM52.6992 5.19727C51.7344 4.91992 51.0312 4.58008 50.5898 4.17773C50.1523 3.77148 49.9336 3.27148 49.9336 2.67773C49.9336 2.00586 50.2012 1.45117 50.7363 1.01367C51.2754 0.572266 51.9746 0.351562 52.834 0.351562C53.4199 0.351562 53.9414 0.464844 54.3984 0.691406C54.8594 0.917969 55.2148 1.23047 55.4648 1.62891C55.7188 2.02734 55.8457 2.46289 55.8457 2.93555H54.7148C54.7148 2.41992 54.5508 2.01562 54.2227 1.72266C53.8945 1.42578 53.4316 1.27734 52.834 1.27734C52.2793 1.27734 51.8457 1.40039 51.5332 1.64648C51.2246 1.88867 51.0703 2.22656 51.0703 2.66016C51.0703 3.00781 51.2168 3.30273 51.5098 3.54492C51.8066 3.7832 52.3086 4.00195 53.0156 4.20117C53.7266 4.40039 54.2812 4.62109 54.6797 4.86328C55.082 5.10156 55.3789 5.38086 55.5703 5.70117C55.7656 6.02148 55.8633 6.39844 55.8633 6.83203C55.8633 7.52344 55.5938 8.07812 55.0547 8.49609C54.5156 8.91016 53.7949 9.11719 52.8926 9.11719C52.3066 9.11719 51.7598 9.00586 51.252 8.7832C50.7441 8.55664 50.3516 8.24805 50.0742 7.85742C49.8008 7.4668 49.6641 7.02344 49.6641 6.52734H50.7949C50.7949 7.04297 50.9844 7.45117 51.3633 7.75195C51.7461 8.04883 52.2559 8.19727 52.8926 8.19727C53.4863 8.19727 53.9414 8.07617 54.2578 7.83398C54.5742 7.5918 54.7324 7.26172 54.7324 6.84375C54.7324 6.42578 54.5859 6.10352 54.293 5.87695C54 5.64648 53.4688 5.41992 52.6992 5.19727Z" fill="#E1E1E6"/>
<path d="M22.9336 8.43164C22.9336 8.24414 22.9883 8.08789 23.0977 7.96289C23.2109 7.83789 23.3789 7.77539 23.6016 7.77539C23.8242 7.77539 23.9922 7.83789 24.1055 7.96289C24.2227 8.08789 24.2812 8.24414 24.2812 8.43164C24.2812 8.61133 24.2227 8.76172 24.1055 8.88281C23.9922 9.00391 23.8242 9.06445 23.6016 9.06445C23.3789 9.06445 23.2109 9.00391 23.0977 8.88281C22.9883 8.76172 22.9336 8.61133 22.9336 8.43164Z" fill="#EBA417"/>
</svg>
